<svg xmlns="http://www.w3.org/2000/svg" xmlns:xlink="http://www.w3.org/1999/xlink" viewBox="0,0,256,256" width="64px" height="64px"><g fill="#316ff6" fill-rule="nonzero" stroke="none" stroke-width="1" stroke-linecap="butt" stroke-linejoin="miter" stroke-miterlimit="10" stroke-dasharray="" stroke-dashoffset="0" font-family="none" font-weight="none" font-size="none" text-anchor="none" style="mix-blend-mode: normal"><g transform="scale(5.12,5.12)"><path d="M42,3h-34c-2.8,0 -5,2.2 -5,5v34c0,2.8 2.2,5 5,5h34c2.8,0 5,-2.2 5,-5v-34c0,-2.8 -2.2,-5 -5,-5zM37,19h-2c-2.1,0 -3,0.5 -3,2v3h5l-1,5h-4v16h-5v-16h-4v-5h4v-3c0,-4 2,-7 6,-7c2.9,0 4,1 4,1z"></path></g></g></svg>